<?xml version="1.0" encoding="UTF-8" standalone="no"?>
<!-- Created with Inkscape (http://www.inkscape.org/) -->

<svg
   version="1.1"
   id="svg240"
   width="584"
   height="1036"
   viewBox="0 0 584 1036"
   sodipodi:docname="explorer.svg"
   inkscape:version="1.1.1 (3bf5ae0d25, 2021-09-20)"
   xmlns:inkscape="http://www.inkscape.org/namespaces/inkscape"
   xmlns:sodipodi="http://sodipodi.sourceforge.net/DTD/sodipodi-0.dtd"
   xmlns="http://www.w3.org/2000/svg"
   xmlns:svg="http://www.w3.org/2000/svg">
  <defs
     id="defs244" />
  <sodipodi:namedview
     id="namedview242"
     pagecolor="#ffffff"
     bordercolor="#666666"
     borderopacity="1.0"
     inkscape:pageshadow="2"
     inkscape:pageopacity="0.0"
     inkscape:pagecheckerboard="0"
     showgrid="false"
     inkscape:zoom="0.70710678"
     inkscape:cx="260.9224"
     inkscape:cy="579.12045"
     inkscape:window-width="1856"
     inkscape:window-height="1016"
     inkscape:window-x="64"
     inkscape:window-y="27"
     inkscape:window-maximized="1"
     inkscape:current-layer="g246" />
  <g
     inkscape:groupmode="layer"
     inkscape:label="Image"
     id="g246"
     style="display:inline">
    <g
       id="g757">
      <path
         style="fill:none;stroke:#000000;stroke-width:1px;stroke-linecap:butt;stroke-linejoin:miter;stroke-opacity:1"
         d="m 319.36739,511.88686 c 0,0 -0.7523,25.0597 9.79401,34.13715 10.54631,9.07746 8.12599,6.18189 17.29641,6.757 9.17042,0.57511 20.56233,-11.3996 20.56233,-11.3996 l 74.8254,-62.5524 c 0,0 2.32393,-5.11916 11.13283,-1.73281 8.9124,3.42615 -28.10283,97.82076 -28.10283,97.82076 l -32.76226,99.99776 c 0,0 -3.39686,14.62743 1.71961,28.22475 5.11646,13.59733 45.24774,132.29095 45.24774,132.29095 0,0 0.86485,4.16651 -7.30712,8.32695"
         id="path666"
         sodipodi:nodetypes="cssccsccscc" />
      <path
         style="fill:none;stroke:#000000;stroke-width:1px;stroke-linecap:butt;stroke-linejoin:miter;stroke-opacity:1"
         d="M 431.77351,843.75737 C 351.17488,890.0382 291.24234,917.85702 91.408733,949.2256 c -3.617849,0.56791 -6.080595,-0.24661 -7.073345,-1.26046 -1.746955,-5.94783 146.382412,-257.4467 146.382412,-257.4467 0,0 6.96529,-17.86818 0.56809,-42.02034 l -7.05134,-63.3832 c 0,0 -0.11333,-14.86772 6.04262,-16.87671 6.15596,-2.00899 27.65155,-9.61781 32.52439,-13.97311"
         id="path670"
         sodipodi:nodetypes="csccccsc" />
      <path
         style="fill:none;stroke:#000000;stroke-width:1px;stroke-linecap:butt;stroke-linejoin:miter;stroke-opacity:1"
         d="m 262.80156,554.26508 c 0,0 7.83046,-9.77427 9.35738,-14.73617 1.52693,-4.96191 2.73636,-28.14154 2.73636,-28.14154"
         id="path672"
         sodipodi:nodetypes="csc" />
    </g>
  </g>
</svg>
