<?xml version="1.0" encoding="UTF-8" standalone="no"?>
<!-- Created with Inkscape (http://www.inkscape.org/) -->

<svg
   version="1.1"
   id="svg240"
   width="584"
   height="1036"
   viewBox="0 0 584 1036"
   sodipodi:docname="lespaul.svg"
   inkscape:version="1.1.1 (3bf5ae0d25, 2021-09-20)"
   xmlns:inkscape="http://www.inkscape.org/namespaces/inkscape"
   xmlns:sodipodi="http://sodipodi.sourceforge.net/DTD/sodipodi-0.dtd"
   xmlns="http://www.w3.org/2000/svg"
   xmlns:svg="http://www.w3.org/2000/svg">
  <defs
     id="defs244" />
  <sodipodi:namedview
     id="namedview242"
     pagecolor="#ffffff"
     bordercolor="#666666"
     borderopacity="1.0"
     inkscape:pageshadow="2"
     inkscape:pageopacity="0.0"
     inkscape:pagecheckerboard="0"
     showgrid="false"
     inkscape:zoom="0.70710678"
     inkscape:cx="188.79751"
     inkscape:cy="480.12551"
     inkscape:window-width="1856"
     inkscape:window-height="1016"
     inkscape:window-x="64"
     inkscape:window-y="27"
     inkscape:window-maximized="1"
     inkscape:current-layer="g246" />
  <g
     inkscape:groupmode="layer"
     inkscape:label="Image"
     id="g246"
     style="display:inline">
    <g
       id="g13084">
      <path
         style="fill:none;stroke:#000000;stroke-width:1px;stroke-linecap:butt;stroke-linejoin:miter;stroke-opacity:1"
         d="m 274.65115,498.40853 c -32.22634,2.01835 -32.88571,3.4501 -52.40042,13.31945 -9.07192,4.72835 -23.82678,23.6454 -23.6163,41.37409 0.20808,17.52663 0.98235,17.04277 4.00783,30.6516 4.52352,20.34708 34.23802,39.30833 8.64676,70.71214 -26.78745,32.87169 -62.18626,73.29558 -48.66105,132.47548 13.52521,59.17991 58.26577,73.61507 58.26577,73.61507 0,0 42.88758,15.58697 97.25035,11.49218 54.67645,-4.11842 79.70835,-27.3516 79.70835,-27.3516 0,0 44.95915,-30.06356 38.38527,-97.96093"
         id="path9497"
         sodipodi:nodetypes="ccsssscscc" />
      <path
         style="fill:none;stroke:#000000;stroke-width:1px;stroke-linecap:butt;stroke-linejoin:miter;stroke-opacity:1"
         d="m 436.23771,746.73601 c 0,0 -0.96082,-39.57961 -38.0186,-77.31817 -36.31589,-36.98304 -19.61034,-54.93858 -18.13417,-60.38415 3.57936,-10.22176 13.95931,-27.49375 15.59496,-39.29861 2.49823,-18.03029 1.18506,-21.8935 -2.91743,-33.04657 -1.80422,-4.90497 -4.64085,4.32852 -13.74597,13.60424 -9.10512,9.27573 -25.12026,8.25525 -25.12026,8.25525 -14.33039,-1.2687 -24.6468,-11.49101 -33.49256,-24.99379"
         id="path9499"
         sodipodi:nodetypes="cscssscc" />
    </g>
  </g>
</svg>
